<svg xmlns="http://www.w3.org/2000/svg" viewBox="0 0 48.41 48.34"><defs><style>.cls-1{fill:#f0c034;}</style></defs><g id="图层_2" data-name="图层 2"><g id="图层_1-2" data-name="图层 1"><path class="cls-1" d="M3.44,38.33c.24-1.18.37-2.14.62-3.06.7-2.52.42-3.64-1.63-4.4a5.57,5.57,0,0,1-1-.55c-1.76-1.05-1.87-1.59-.6-3.14.27-.34.59-.64.88-1,1.41-1.59,1.43-2.37.11-4.06C-.6,19-.62,19,2.87,17.29a2.26,2.26,0,0,0,1.44-2.81c-.13-.61-.38-1.18-.54-1.78-.53-2-.21-2.51,1.79-3,.42-.09.85-.14,1.28-.19,2.51-.31,2.79-.51,2.72-3-.08-2.67,1.52-4,4.32-2.52,1.6.86,2.46.46,3.31-1,2-3.35,2-3.32,5.35-1.1a2.57,2.57,0,0,0,3.54-.22c.36-.34.77-.62,1.16-.93,1.52-1.21,2-1.12,3,.52a.91.91,0,0,1,.09.17c2,3.43,2,3.43,5.59,2.24,2-.67,2.6-.27,2.72,2,.17,3.4.68,3.91,4.23,4.22,2.27.2,2.42.41,1.77,2.66A14.69,14.69,0,0,1,44.1,14a2.35,2.35,0,0,0,1.48,3.42,9.32,9.32,0,0,1,2,1,1.49,1.49,0,0,1,.3,2.52l-.24.28c-2.52,3-2.52,3-.09,6,1.25,1.56,1.2,2-.44,3.08-.52.33-1.08.58-1.63.86a2.48,2.48,0,0,0-1.35,3.41,11.19,11.19,0,0,1,.47,1.21c.54,2.16.14,2.7-2,2.81-3.14.16-3.79.85-3.87,4.1-.05,2-.9,2.64-2.84,2-3.56-1.12-3.62-1.1-5.48,2.21-1,1.78-1.74,1.91-3.3.58-2.46-2.09-2.91-2.1-5.57-.09-1.86,1.39-2.49,1.26-3.55-.76-1.56-3-1.56-3-4.81-2.11-2.52.67-2.87.47-3.33-1.85C9,38.7,9,38.7,5,38.48,4.62,38.46,4.26,38.41,3.44,38.33Zm21,2.55C35,41.1,41.88,32,41.6,23.52A17.49,17.49,0,0,0,22.74,6.93c-8.55.43-16.26,8.49-16,17.6C6.94,32.47,13.83,41.6,24.48,40.88Z"/><path class="cls-1" d="M24.13,9.55c8.74,0,15.41,6.15,15.19,14.61S32.9,39,24.06,39.23c-8.13.19-15-6.9-14.9-15.21C9.24,16.36,15.4,8.72,24.13,9.55Z"/></g></g></svg>